<?xml version="1.0" encoding="UTF-8" standalone="no"?>
<svg width="208px" height="168px" viewBox="0 0 208 168" version="1.1" xmlns="http://www.w3.org/2000/svg" xmlns:xlink="http://www.w3.org/1999/xlink" xmlns:sketch="http://www.bohemiancoding.com/sketch/ns">
    <!-- Generator: Sketch 3.5.1 (25234) - http://www.bohemiancoding.com/sketch -->
    <title>logo</title>
    <desc>Created with Sketch.</desc>
    <defs></defs>
    <g id="Page-1" stroke="none" stroke-width="1" fill="none" fill-rule="evenodd" sketch:type="MSPage">
        <g id="logo" sketch:type="MSLayerGroup">
            <g id="Group" sketch:type="MSShapeGroup">
                <g transform="translate(0.000000, 95.000000)" fill="#FFFFFF">
                    <path d="M15.633,31.88 L15.134,28.444 L14.974,28.444 C13.881,29.842 12.759,30.832 11.608,31.411 C10.456,31.989 9.092,32.279 7.521,32.279 C5.39,32.279 3.731,31.733 2.546,30.641 C1.359,29.548 0.768,28.037 0.768,26.105 C0.768,23.989 1.651,22.342 3.414,21.17 C5.179,19.998 7.734,19.377 11.077,19.311 L15.213,19.191 L15.213,17.753 C15.213,15.689 14.794,14.129 13.955,13.077 C13.116,12.024 11.763,11.5 9.899,11.5 C7.887,11.5 5.802,12.058 3.644,13.178 L2.906,11.459 C5.29,10.34 7.647,9.78 9.977,9.78 C12.362,9.78 14.144,10.4 15.323,11.638 C16.501,12.876 17.091,14.809 17.091,17.431 L17.091,31.878 L15.633,31.878 L15.633,31.88 Z M7.642,30.481 C9.958,30.481 11.788,29.817 13.126,28.493 C14.463,27.169 15.134,25.327 15.134,22.968 L15.134,20.831 L11.338,20.991 C8.286,21.137 6.112,21.613 4.814,22.419 C3.515,23.226 2.865,24.481 2.865,26.185 C2.865,27.544 3.282,28.6 4.115,29.353 C4.947,30.104 6.124,30.481 7.642,30.481 L7.642,30.481 Z" id="Shape"></path>
                    <path d="M28.88,31.88 L20.487,10.161 L22.527,10.161 L28.14,24.927 C28.885,26.82 29.446,28.47 29.819,29.882 L29.939,29.882 C30.485,28.071 31.044,26.405 31.617,24.888 L37.232,10.161 L39.269,10.161 L30.878,31.88 L28.88,31.88 L28.88,31.88 Z" id="Shape"></path>
                    <path d="M44.885,31.88 L42.906,31.88 L42.906,10.161 L44.885,10.161 L44.885,31.88 L44.885,31.88 Z" id="Shape"></path>
                    <path d="M65.345,31.88 L64.847,28.444 L64.686,28.444 C63.593,29.842 62.471,30.832 61.321,31.411 C60.167,31.989 58.806,32.279 57.234,32.279 C55.102,32.279 53.444,31.733 52.259,30.641 C51.073,29.548 50.48,28.037 50.48,26.105 C50.48,23.989 51.363,22.342 53.127,21.17 C54.891,19.998 57.447,19.377 60.791,19.311 L64.926,19.191 L64.926,17.753 C64.926,15.689 64.506,14.129 63.667,13.077 C62.828,12.024 61.476,11.5 59.611,11.5 C57.599,11.5 55.514,12.058 53.356,13.178 L52.618,11.459 C55.003,10.34 57.359,9.78 59.69,9.78 C62.075,9.78 63.857,10.4 65.035,11.638 C66.215,12.876 66.804,14.809 66.804,17.431 L66.804,31.878 L65.345,31.878 L65.345,31.88 Z M57.354,30.481 C59.672,30.481 61.5,29.817 62.839,28.493 C64.178,27.169 64.847,25.327 64.847,22.968 L64.847,20.831 L61.052,20.991 C58,21.137 55.825,21.613 54.527,22.419 C53.228,23.226 52.579,24.481 52.579,26.185 C52.579,27.544 52.995,28.6 53.828,29.353 C54.66,30.104 55.835,30.481 57.354,30.481 L57.354,30.481 Z" id="Shape"></path>
                    <path d="M87.305,26.226 C87.305,28.171 86.565,29.665 85.086,30.712 C83.607,31.757 81.511,32.279 78.792,32.279 C75.888,32.279 73.584,31.834 71.88,30.941 L71.88,28.803 C74.064,29.894 76.369,30.442 78.792,30.442 C80.937,30.442 82.566,30.085 83.678,29.372 C84.79,28.661 85.346,27.712 85.346,26.524 C85.346,25.433 84.904,24.514 84.018,23.768 C83.132,23.021 81.676,22.289 79.653,21.57 C77.481,20.784 75.957,20.108 75.077,19.542 C74.198,18.976 73.535,18.337 73.089,17.624 C72.643,16.911 72.42,16.042 72.42,15.017 C72.42,13.392 73.103,12.105 74.467,11.162 C75.833,10.216 77.742,9.743 80.193,9.743 C82.537,9.743 84.76,10.181 86.867,11.061 L86.128,12.859 C83.997,11.98 82.019,11.541 80.193,11.541 C78.421,11.541 77.016,11.834 75.977,12.42 C74.939,13.007 74.418,13.818 74.418,14.858 C74.418,15.991 74.82,16.897 75.627,17.575 C76.432,18.255 78.009,19.014 80.353,19.853 C82.312,20.559 83.736,21.196 84.628,21.762 C85.52,22.326 86.19,22.969 86.636,23.69 C87.082,24.407 87.305,25.254 87.305,26.226 L87.305,26.226 Z" id="Shape"></path>
                    <path d="M106.087,31.88 L105.588,28.444 L105.428,28.444 C104.335,29.842 103.213,30.832 102.061,31.411 C100.909,31.989 99.546,32.279 97.976,32.279 C95.843,32.279 94.185,31.733 93,30.641 C91.814,29.548 91.222,28.037 91.222,26.105 C91.222,23.989 92.104,22.342 93.868,21.17 C95.632,19.998 98.188,19.377 101.532,19.311 L105.667,19.191 L105.667,17.753 C105.667,15.689 105.248,14.129 104.408,13.077 C103.569,12.024 102.217,11.5 100.351,11.5 C98.34,11.5 96.256,12.058 94.097,13.178 L93.357,11.459 C95.742,10.34 98.101,9.78 100.431,9.78 C102.816,9.78 104.598,10.4 105.776,11.638 C106.955,12.876 107.545,14.809 107.545,17.431 L107.545,31.878 L106.087,31.878 L106.087,31.88 Z M98.095,30.481 C100.413,30.481 102.241,29.817 103.578,28.493 C104.917,27.169 105.588,25.327 105.588,22.968 L105.588,20.831 L101.791,20.991 C98.741,21.137 96.566,21.613 95.267,22.419 C93.969,23.226 93.319,24.481 93.319,26.185 C93.319,27.544 93.736,28.6 94.568,29.353 C95.4,30.104 96.576,30.481 98.095,30.481 L98.095,30.481 Z" id="Shape"></path>
                    <path d="M116.557,31.88 L114.578,31.88 L114.578,0.79 L116.557,0.79 L116.557,31.88 L116.557,31.88 Z" id="Shape"></path>
                    <path d="M132.601,32.279 C129.445,32.279 126.983,31.307 125.218,29.362 C123.453,27.418 122.572,24.694 122.572,21.19 C122.572,17.726 123.424,14.954 125.13,12.869 C126.834,10.784 129.133,9.742 132.022,9.742 C134.581,9.742 136.6,10.634 138.078,12.419 C139.556,14.204 140.296,16.628 140.296,19.692 L140.296,21.29 L124.65,21.29 C124.677,24.274 125.373,26.552 126.74,28.124 C128.104,29.696 130.06,30.481 132.603,30.481 C133.843,30.481 134.932,30.395 135.871,30.221 C136.81,30.047 137.999,29.674 139.436,29.102 L139.436,30.901 C138.211,31.434 137.079,31.797 136.04,31.989 C134.999,32.183 133.854,32.279 132.601,32.279 L132.601,32.279 Z M132.021,11.501 C129.931,11.501 128.252,12.189 126.987,13.567 C125.722,14.946 124.983,16.934 124.769,19.532 L138.196,19.532 C138.196,17.014 137.65,15.046 136.558,13.628 C135.464,12.209 133.955,11.501 132.021,11.501 L132.021,11.501 Z" id="Shape"></path>
                    <path d="M159.755,26.226 C159.755,28.171 159.016,29.665 157.536,30.712 C156.057,31.757 153.961,32.279 151.243,32.279 C148.338,32.279 146.034,31.834 144.33,30.941 L144.33,28.803 C146.514,29.894 148.818,30.442 151.243,30.442 C153.387,30.442 155.015,30.085 156.127,29.372 C157.238,28.661 157.797,27.712 157.797,26.524 C157.797,25.433 157.354,24.514 156.467,23.768 C155.582,23.021 154.126,22.289 152.102,21.57 C149.929,20.784 148.405,20.108 147.527,19.542 C146.647,18.976 145.984,18.337 145.539,17.624 C145.092,16.911 144.869,16.042 144.869,15.017 C144.869,13.392 145.553,12.105 146.918,11.162 C148.283,10.216 150.19,9.743 152.642,9.743 C154.986,9.743 157.211,10.181 159.317,11.061 L158.577,12.859 C156.446,11.98 154.469,11.541 152.642,11.541 C150.871,11.541 149.465,11.834 148.426,12.42 C147.387,13.007 146.867,13.818 146.867,14.858 C146.867,15.991 147.271,16.897 148.077,17.575 C148.883,18.255 150.457,19.014 152.802,19.853 C154.761,20.559 156.186,21.196 157.078,21.762 C157.97,22.326 158.64,22.969 159.087,23.69 C159.532,24.407 159.755,25.254 159.755,26.226 L159.755,26.226 Z" id="Shape"></path>
                    <path d="M183.632,9.742 C184.552,9.742 185.536,9.835 186.588,10.02 L186.21,11.918 C185.302,11.691 184.363,11.579 183.393,11.579 C181.539,11.579 180.022,12.365 178.835,13.935 C177.65,15.508 177.058,17.493 177.058,19.89 L177.058,31.878 L175.079,31.878 L175.079,10.159 L176.759,10.159 L176.959,14.075 L177.097,14.075 C177.99,12.477 178.945,11.355 179.954,10.708 C180.968,10.065 182.192,9.742 183.632,9.742 L183.632,9.742 Z" id="Shape"></path>
                    <path d="M192.723,10.161 L192.723,24.227 C192.723,26.411 193.183,28 194.102,28.993 C195.02,29.985 196.446,30.481 198.377,30.481 C200.962,30.481 202.862,29.829 204.083,28.523 C205.3,27.218 205.909,25.094 205.909,22.149 L205.909,10.161 L207.868,10.161 L207.868,31.88 L206.189,31.88 L205.83,28.884 L205.709,28.884 C204.298,31.148 201.787,32.28 198.178,32.28 C193.236,32.28 190.766,29.635 190.766,24.347 L190.766,10.161 L192.723,10.161 L192.723,10.161 Z" id="Shape"></path>
                    <circle id="Oval" cx="44.001" cy="3.695" r="1.447"></circle>
                    <circle id="Oval" cx="166.714" cy="29.888" r="1.448"></circle>
                </g>
                <g transform="translate(22.000000, 138.000000);scale(1.3)" id="Shape" fill="#FFFFFF">
                    <path d="M5.747,10.894 L6.783,6.081 C6.88,5.654 6.929,5.292 6.929,4.996 C6.929,4.624 6.827,4.335 6.626,4.126 C6.425,3.918 6.111,3.813 5.69,3.813 C5.17,3.813 4.682,3.969 4.226,4.278 C3.769,4.589 3.383,5.026 3.071,5.584 C2.758,6.142 2.519,6.806 2.352,7.575 L1.642,10.893 L0.96,10.893 L2.566,3.334 L3.136,3.334 L2.879,4.87 L2.921,4.87 C3.681,3.766 4.646,3.214 5.814,3.214 C6.417,3.214 6.87,3.363 7.169,3.66 C7.47,3.956 7.622,4.383 7.622,4.939 C7.622,5.263 7.567,5.685 7.454,6.205 L6.426,10.893 L5.747,10.893 L5.747,10.894 Z"></path>
                    <path d="M12.896,3.188 C13.73,3.188 14.375,3.439 14.833,3.943 C15.289,4.445 15.518,5.14 15.518,6.026 C15.518,6.939 15.353,7.793 15.02,8.588 C14.69,9.384 14.237,9.99 13.661,10.408 C13.087,10.825 12.424,11.033 11.673,11.033 C10.82,11.033 10.172,10.78 9.729,10.272 C9.287,9.765 9.065,9.037 9.065,8.091 C9.065,7.204 9.235,6.376 9.574,5.601 C9.913,4.826 10.369,4.23 10.943,3.814 C11.516,3.396 12.167,3.188 12.896,3.188 L12.896,3.188 Z M12.839,3.786 C12.264,3.786 11.748,3.968 11.289,4.331 C10.829,4.696 10.464,5.218 10.19,5.895 C9.916,6.575 9.779,7.294 9.779,8.055 C9.779,9.641 10.433,10.434 11.74,10.434 C12.329,10.434 12.852,10.254 13.308,9.896 C13.764,9.535 14.129,9.006 14.401,8.309 C14.672,7.612 14.807,6.846 14.807,6.01 C14.807,5.296 14.638,4.746 14.299,4.362 C13.96,3.978 13.475,3.786 12.839,3.786 L12.839,3.786 Z"></path>
                    <path d="M18.849,3.335 L17.792,8.189 C17.689,8.679 17.639,9.046 17.639,9.287 C17.639,9.631 17.749,9.902 17.97,10.105 C18.19,10.306 18.511,10.408 18.932,10.408 C19.443,10.408 19.923,10.256 20.376,9.952 C20.826,9.648 21.207,9.215 21.517,8.651 C21.825,8.088 22.055,7.441 22.208,6.707 L22.938,3.336 L23.62,3.336 L22.013,10.895 L21.457,10.895 L21.65,9.469 L21.61,9.469 C20.836,10.494 19.902,11.006 18.807,11.006 C18.199,11.006 17.741,10.862 17.426,10.575 C17.114,10.287 16.957,9.867 16.957,9.314 C16.957,9.037 17.009,8.642 17.109,8.132 L18.153,3.335 L18.849,3.335 L18.849,3.335 Z"></path>
                    <path d="M27.466,11.032 C26.659,11.032 26.023,10.776 25.556,10.264 C25.09,9.75 24.858,9.04 24.858,8.131 C24.858,7.236 25.027,6.399 25.369,5.617 C25.709,4.836 26.17,4.24 26.751,3.83 C27.329,3.42 28.002,3.214 28.768,3.214 C29.388,3.214 29.948,3.315 30.443,3.514 L30.249,4.14 C29.753,3.922 29.247,3.813 28.733,3.813 C28.134,3.813 27.596,3.991 27.115,4.348 C26.636,4.704 26.259,5.221 25.985,5.893 C25.713,6.564 25.576,7.306 25.576,8.119 C25.576,8.85 25.745,9.415 26.087,9.811 C26.428,10.207 26.911,10.407 27.537,10.407 C27.865,10.407 28.171,10.376 28.452,10.317 C28.731,10.255 29.037,10.149 29.365,9.997 L29.365,10.636 C28.827,10.9 28.195,11.032 27.466,11.032 L27.466,11.032 Z"></path>
                    <path d="M36.285,3.335 L37.3,3.335 L33.079,7.047 L35.889,10.894 L35.004,10.894 L32.285,7.075 L31.5,10.894 L30.817,10.894 L32.382,3.335 L33.064,3.335 L32.298,6.978 L36.285,3.335 L36.285,3.335 Z"></path>
                    <path d="M45.054,3.215 C46.129,3.215 46.776,3.723 46.994,4.737 L47.036,4.737 L47.446,3.335 L48.003,3.335 L46.41,10.894 L45.84,10.894 L46.153,8.988 L46.11,8.988 C45.721,9.647 45.288,10.154 44.809,10.505 C44.332,10.858 43.783,11.033 43.162,11.033 C41.859,11.033 41.208,10.166 41.208,8.431 C41.208,7.519 41.381,6.646 41.729,5.817 C42.076,4.988 42.542,4.346 43.124,3.893 C43.706,3.441 44.349,3.215 45.054,3.215 L45.054,3.215 Z M43.323,10.407 C43.735,10.407 44.147,10.262 44.557,9.975 C44.967,9.688 45.336,9.302 45.662,8.82 C45.988,8.339 46.238,7.805 46.41,7.221 C46.581,6.637 46.667,6.143 46.667,5.74 C46.667,5.374 46.606,5.046 46.486,4.755 C46.366,4.466 46.186,4.235 45.95,4.067 C45.714,3.897 45.42,3.813 45.068,3.813 C44.492,3.813 43.973,4.002 43.508,4.383 C43.045,4.762 42.665,5.332 42.368,6.091 C42.071,6.848 41.924,7.604 41.924,8.354 C41.924,9.059 42.039,9.577 42.271,9.909 C42.503,10.24 42.855,10.407 43.323,10.407 L43.323,10.407 Z"></path>
                    <path d="M53.065,3.215 C53.752,3.215 54.284,3.38 54.662,3.706 C55.041,4.032 55.228,4.485 55.228,5.065 C55.228,5.618 55.058,6.065 54.72,6.411 C54.382,6.757 53.903,6.995 53.281,7.13 L53.281,7.157 C53.763,7.237 54.14,7.414 54.412,7.691 C54.683,7.966 54.818,8.317 54.818,8.745 C54.818,9.181 54.701,9.571 54.466,9.921 C54.232,10.268 53.894,10.54 53.451,10.737 C53.008,10.934 52.481,11.032 51.868,11.032 C50.97,11.032 50.283,10.766 49.81,10.237 C49.336,9.704 49.101,8.946 49.101,7.958 C49.101,7.101 49.27,6.304 49.608,5.57 C49.947,4.835 50.419,4.258 51.023,3.841 C51.629,3.425 52.309,3.215 53.065,3.215 L53.065,3.215 Z M49.804,7.507 L49.789,8.015 C49.789,8.798 49.976,9.392 50.35,9.799 C50.722,10.204 51.266,10.407 51.98,10.407 C52.648,10.407 53.168,10.262 53.543,9.975 C53.916,9.688 54.103,9.295 54.103,8.799 C54.103,7.938 53.477,7.506 52.225,7.506 L49.804,7.506 L49.804,7.507 Z M53.009,3.813 C52.239,3.813 51.568,4.094 50.992,4.657 C50.418,5.221 50.04,5.967 49.858,6.894 L51.528,6.894 C52.515,6.894 53.26,6.743 53.763,6.442 C54.266,6.14 54.518,5.708 54.518,5.142 C54.518,4.733 54.388,4.409 54.127,4.17 C53.871,3.934 53.497,3.813 53.009,3.813 L53.009,3.813 Z"></path>
                    <path d="M58.433,3.335 L57.376,8.189 C57.275,8.679 57.225,9.046 57.225,9.287 C57.225,9.631 57.334,9.902 57.554,10.105 C57.775,10.306 58.095,10.408 58.517,10.408 C59.028,10.408 59.509,10.256 59.961,9.952 C60.413,9.648 60.793,9.215 61.102,8.651 C61.411,8.087 61.642,7.441 61.793,6.707 L62.523,3.336 L63.204,3.336 L61.599,10.895 L61.043,10.895 L61.235,9.469 L61.195,9.469 C60.422,10.494 59.486,11.006 58.392,11.006 C57.785,11.006 57.324,10.862 57.012,10.575 C56.698,10.287 56.543,9.867 56.543,9.314 C56.543,9.037 56.592,8.642 56.694,8.132 L57.739,3.335 L58.433,3.335 L58.433,3.335 Z"></path>
                    <path d="M68.29,3.215 C69.366,3.215 70.013,3.723 70.229,4.737 L70.271,4.737 L70.683,3.335 L71.24,3.335 L69.646,10.894 L69.077,10.894 L69.389,8.988 L69.348,8.988 C68.959,9.647 68.526,10.154 68.048,10.505 C67.569,10.858 67.02,11.033 66.4,11.033 C65.096,11.033 64.445,10.166 64.445,8.431 C64.445,7.519 64.619,6.646 64.966,5.817 C65.315,4.988 65.779,4.346 66.361,3.893 C66.941,3.441 67.584,3.215 68.29,3.215 L68.29,3.215 Z M66.558,10.407 C66.97,10.407 67.382,10.262 67.791,9.975 C68.202,9.688 68.572,9.302 68.898,8.82 C69.224,8.339 69.473,7.805 69.645,7.221 C69.816,6.637 69.902,6.143 69.902,5.74 C69.902,5.374 69.842,5.046 69.72,4.755 C69.6,4.466 69.422,4.235 69.186,4.067 C68.95,3.897 68.656,3.813 68.303,3.813 C67.728,3.813 67.207,4.002 66.744,4.383 C66.281,4.762 65.901,5.332 65.604,6.091 C65.307,6.848 65.158,7.604 65.158,8.354 C65.158,9.059 65.275,9.577 65.506,9.909 C65.741,10.24 66.089,10.407 66.558,10.407 L66.558,10.407 Z"></path>
                    <path d="M72.295,7.875 C72.295,6.763 72.45,5.683 72.764,4.638 C73.078,3.593 73.492,2.751 74.006,2.114 C74.52,1.476 75.103,1.051 75.758,0.838 C76.19,0.699 76.79,0.553 77.558,0.397 C78.329,0.242 78.888,0.139 79.235,0.086 L79.32,0.685 L78.881,0.768 C77.463,1.034 76.468,1.26 75.899,1.45 C75.281,1.669 74.745,2.112 74.288,2.784 C73.833,3.453 73.476,4.329 73.223,5.415 L73.257,5.415 C74.082,4.403 75.001,3.897 76.018,3.897 C76.713,3.897 77.253,4.127 77.642,4.586 C78.027,5.045 78.222,5.709 78.222,6.575 C78.222,7.448 78.075,8.236 77.781,8.939 C77.485,9.644 77.085,10.169 76.574,10.515 C76.065,10.861 75.465,11.033 74.779,11.033 C73.982,11.033 73.369,10.762 72.94,10.22 C72.509,9.676 72.295,8.895 72.295,7.875 L72.295,7.875 Z M74.875,10.435 C75.412,10.435 75.883,10.275 76.281,9.955 C76.678,9.636 76.983,9.189 77.194,8.621 C77.405,8.05 77.511,7.399 77.511,6.666 C77.511,5.934 77.365,5.391 77.075,5.039 C76.786,4.685 76.387,4.51 75.884,4.51 C75.414,4.51 74.959,4.645 74.516,4.913 C74.074,5.183 73.609,5.628 73.122,6.249 C73.095,6.41 73.067,6.658 73.038,6.992 C73.01,7.326 72.997,7.603 72.997,7.821 C72.997,8.711 73.15,9.369 73.454,9.797 C73.756,10.222 74.23,10.435 74.875,10.435 L74.875,10.435 Z"></path>
                    <path d="M81.642,3.335 L80.585,8.189 C80.483,8.679 80.433,9.046 80.433,9.287 C80.433,9.631 80.54,9.902 80.763,10.105 C80.983,10.306 81.303,10.408 81.726,10.408 C82.235,10.408 82.716,10.256 83.168,9.952 C83.62,9.648 84.001,9.215 84.309,8.651 C84.617,8.087 84.848,7.441 85.001,6.707 L85.732,3.336 L86.414,3.336 L84.807,10.895 L84.251,10.895 L84.445,9.469 L84.402,9.469 C83.629,10.494 82.693,11.006 81.6,11.006 C80.993,11.006 80.534,10.862 80.218,10.575 C79.905,10.287 79.749,9.867 79.749,9.314 C79.749,9.037 79.8,8.642 79.9,8.132 L80.946,3.335 L81.642,3.335 L81.642,3.335 Z"></path>
                    <path d="M91.984,10.894 L91.317,10.894 L92.811,3.896 C92.634,3.869 92.462,3.855 92.296,3.855 C91.869,3.855 91.517,3.947 91.239,4.13 C90.961,4.314 90.702,4.623 90.461,5.063 C90.218,5.5 89.934,6.21 89.605,7.193 C89.206,8.377 88.879,9.197 88.625,9.656 C88.371,10.115 88.09,10.449 87.782,10.655 C87.476,10.861 87.101,10.963 86.656,10.963 C86.485,10.963 86.344,10.945 86.233,10.908 L86.233,10.282 C86.367,10.32 86.504,10.338 86.643,10.338 C86.986,10.338 87.267,10.25 87.491,10.074 C87.715,9.898 87.934,9.594 88.148,9.162 C88.364,8.73 88.646,8.008 88.994,6.992 C89.383,5.839 89.721,5.031 90.01,4.569 C90.297,4.107 90.63,3.775 91.004,3.574 C91.379,3.373 91.842,3.271 92.394,3.271 C92.77,3.271 93.17,3.311 93.591,3.39 L91.984,10.894 L91.984,10.894 Z"></path>
                    <path d="M97.352,11.032 C96.55,11.032 95.926,10.779 95.474,10.271 C95.026,9.764 94.8,9.053 94.8,8.146 C94.8,7.306 94.963,6.502 95.294,5.733 C95.624,4.963 96.076,4.35 96.653,3.895 C97.23,3.442 97.866,3.214 98.561,3.214 C99.09,3.214 99.512,3.356 99.827,3.639 C100.142,3.922 100.301,4.307 100.301,4.793 C100.301,5.633 99.921,6.272 99.163,6.713 C98.407,7.152 97.281,7.373 95.787,7.373 L95.558,7.373 C95.532,7.578 95.517,7.805 95.517,8.055 C95.517,8.82 95.689,9.403 96.032,9.805 C96.375,10.205 96.869,10.407 97.512,10.407 C98.125,10.407 98.765,10.238 99.432,9.899 L99.432,10.552 C98.784,10.872 98.089,11.032 97.352,11.032 L97.352,11.032 Z M98.48,3.813 C97.873,3.813 97.307,4.081 96.786,4.616 C96.265,5.153 95.89,5.868 95.656,6.762 L95.997,6.762 C98.393,6.762 99.592,6.135 99.592,4.884 C99.592,4.572 99.49,4.317 99.29,4.115 C99.088,3.915 98.818,3.813 98.48,3.813 L98.48,3.813 Z"></path>
                    <path d="M105.491,10.894 L106.512,6.206 C106.628,5.627 106.686,5.251 106.686,5.079 C106.686,4.234 106.33,3.813 105.616,3.813 C105.125,3.813 104.661,3.969 104.224,4.282 C103.788,4.595 103.42,5.034 103.119,5.594 C102.816,6.156 102.586,6.82 102.424,7.591 L101.729,10.894 L101.046,10.894 L102.652,3.335 L103.209,3.335 L102.98,4.794 L103.021,4.794 C103.393,4.271 103.814,3.876 104.285,3.612 C104.754,3.346 105.246,3.215 105.763,3.215 C106.254,3.215 106.631,3.371 106.896,3.681 C107.16,3.992 107.298,4.444 107.313,5.038 L107.354,5.038 C107.713,4.439 108.133,3.985 108.615,3.679 C109.096,3.37 109.61,3.215 110.158,3.215 C110.702,3.215 111.124,3.359 111.428,3.643 C111.732,3.929 111.884,4.337 111.884,4.872 C111.884,5.006 111.877,5.137 111.865,5.266 C111.854,5.393 111.809,5.67 111.73,6.095 L110.673,10.895 L109.976,10.895 L111.014,6.166 C111.129,5.61 111.187,5.202 111.187,4.942 C111.187,4.585 111.087,4.307 110.889,4.11 C110.689,3.913 110.411,3.815 110.06,3.815 C109.331,3.815 108.69,4.133 108.131,4.771 C107.57,5.41 107.181,6.25 106.957,7.292 L106.2,10.896 L105.491,10.896 L105.491,10.894 Z"></path>
                    <path d="M117.236,3.188 C118.072,3.188 118.716,3.439 119.174,3.943 C119.629,4.445 119.858,5.14 119.858,6.026 C119.858,6.939 119.692,7.793 119.361,8.588 C119.031,9.384 118.578,9.99 118.002,10.408 C117.428,10.825 116.764,11.033 116.013,11.033 C115.159,11.033 114.513,10.78 114.069,10.272 C113.628,9.765 113.406,9.037 113.406,8.091 C113.406,7.204 113.575,6.376 113.914,5.601 C114.252,4.826 114.709,4.23 115.284,3.814 C115.857,3.396 116.507,3.188 117.236,3.188 L117.236,3.188 Z M117.181,3.786 C116.606,3.786 116.088,3.968 115.629,4.331 C115.171,4.696 114.805,5.218 114.53,5.895 C114.258,6.575 114.121,7.294 114.121,8.055 C114.121,9.641 114.774,10.434 116.082,10.434 C116.671,10.434 117.193,10.254 117.649,9.896 C118.107,9.535 118.469,9.006 118.743,8.309 C119.014,7.612 119.148,6.846 119.148,6.01 C119.148,5.296 118.979,4.746 118.641,4.362 C118.303,3.978 117.816,3.786 117.181,3.786 L117.181,3.786 Z"></path>
                    <path d="M125.227,3.215 C125.915,3.215 126.445,3.38 126.824,3.706 C127.202,4.032 127.389,4.485 127.389,5.065 C127.389,5.618 127.22,6.065 126.882,6.411 C126.544,6.757 126.063,6.995 125.443,7.13 L125.443,7.157 C125.925,7.237 126.302,7.414 126.572,7.691 C126.844,7.966 126.98,8.317 126.98,8.745 C126.98,9.181 126.863,9.571 126.629,9.921 C126.396,10.268 126.057,10.54 125.613,10.737 C125.169,10.934 124.642,11.032 124.029,11.032 C123.132,11.032 122.445,10.766 121.971,10.237 C121.498,9.704 121.262,8.946 121.262,7.958 C121.262,7.101 121.432,6.304 121.77,5.57 C122.108,4.835 122.58,4.258 123.185,3.841 C123.791,3.425 124.471,3.215 125.227,3.215 L125.227,3.215 Z M121.965,7.507 L121.951,8.015 C121.951,8.798 122.137,9.392 122.51,9.799 C122.885,10.204 123.429,10.407 124.142,10.407 C124.809,10.407 125.331,10.262 125.704,9.975 C126.078,9.688 126.264,9.295 126.264,8.799 C126.264,7.938 125.639,7.506 124.386,7.506 L121.965,7.506 L121.965,7.507 Z M125.171,3.813 C124.401,3.813 123.73,4.094 123.154,4.657 C122.579,5.221 122.201,5.967 122.02,6.894 L123.69,6.894 C124.676,6.894 125.423,6.743 125.925,6.442 C126.428,6.14 126.68,5.708 126.68,5.142 C126.68,4.733 126.549,4.409 126.29,4.17 C126.032,3.934 125.658,3.813 125.171,3.813 L125.171,3.813 Z"></path>
                </g>
                <g transform="translate(67.000000, 0.000000)" id="Shape">
                    <path d="M58.314,0.61 L15.084,0.61 C7.281,0.61 0.689,7.202 0.689,15.004 L0.689,59.402 C0.689,67.204 7.281,73.796 15.084,73.796 L58.313,73.796 C67.04,73.796 73.876,67.474 73.876,59.402 L73.876,15.004 C73.877,7.471 66.458,0.61 58.314,0.61 L58.314,0.61 Z M71.814,59.073 C71.814,65.978 66.06,71.734 58.002,71.734 L15.414,71.734 C8.508,71.734 2.753,65.979 2.753,59.073 L2.753,15.333 C2.753,8.428 8.508,2.672 15.414,2.672 L58.003,2.672 C64.909,2.672 71.815,8.427 71.815,15.333 L71.815,59.073 L71.814,59.073 Z" fill="#FFFFFF"></path>
                    <path d="M58.002,2.672 L15.414,2.672 C8.508,2.672 2.753,8.427 2.753,15.333 L2.753,59.074 C2.753,65.979 8.508,71.735 15.414,71.735 L58.003,71.735 C66.061,71.735 71.815,65.98 71.815,59.074 L71.815,15.333 C71.814,8.427 64.909,2.672 58.002,2.672 L58.002,2.672 Z" fill="#00B0DD"></path>
                    <path d="M39.584,21.016 L39.44,21.016 L34.981,21.016 C28.634,21.016 23.254,26.252 23.254,32.599 L23.254,47.563 C23.254,53.91 28.634,59.325 34.981,59.325 L39.584,59.325 C45.931,59.325 51.312,53.909 51.312,47.563 L51.312,32.599 C51.312,26.252 45.931,21.016 39.584,21.016 L39.584,21.016 Z M46.457,41.196 C46.457,45.348 42.958,48.533 38.6,48.533 L35.968,48.533 C31.61,48.533 28.112,45.348 28.112,41.196 L28.112,33.21 C28.112,29.058 31.61,25.873 35.968,25.873 L38.6,25.873 C42.958,25.873 46.457,29.058 46.457,33.21 L46.457,41.196 L46.457,41.196 Z" fill="#FFFFFF"></path>
                    <path d="M56.237,7.528 L17.332,7.528 C11.348,7.528 7.607,11.266 7.607,17.252 L7.607,25.873 L9.823,25.873 C14.181,25.873 17.86,29.058 17.86,33.21 L17.86,41.196 C17.86,45.348 14.181,48.533 9.823,48.533 L7.607,48.533 L7.607,57.154 C7.607,63.139 11.347,66.878 17.332,66.878 L56.237,66.878 C63.221,66.878 66.96,63.14 66.96,57.154 L66.96,48.533 L64.745,48.533 C60.386,48.533 56.708,45.348 56.708,41.196 L56.708,33.21 C56.708,29.058 60.386,25.873 64.745,25.873 L66.96,25.873 L66.96,17.252 C66.959,11.266 62.222,7.528 56.237,7.528 L56.237,7.528 Z M53.334,47.5 C53.334,55.064 47.13,61.303 39.565,61.303 L35,61.303 C27.436,61.303 21.232,55.064 21.232,47.5 L21.232,32.663 C21.232,25.098 27.435,19.038 35,19.038 L39.565,19.038 C47.129,19.038 53.334,25.099 53.334,32.663 L53.334,47.5 L53.334,47.5 Z" fill="#FFFFFF"></path>
                    <path d="M37.284,44.588 L37.062,44.588 C34.038,44.588 32.124,43.31 32.124,40.171 L32.124,37.204 C32.124,37.204 32.124,36.116 31.132,36.116 C30.14,36.116 30.155,37.204 30.155,37.204 L30.155,40.171 C30.155,44.396 32.951,46.557 37.061,46.557 L37.283,46.557 C37.283,46.557 38.252,46.547 38.252,45.591 C38.252,44.636 37.284,44.588 37.284,44.588 L37.284,44.588 Z" fill="#FFFFFF"></path>
                </g>
            </g>
        </g>
    </g>
</svg>
