<?xml version="1.0" encoding="UTF-8" standalone="no"?>
<svg width="29px" height="74px" viewBox="0 0 29 74" version="1.1" xmlns="http://www.w3.org/2000/svg" xmlns:xlink="http://www.w3.org/1999/xlink" class='scroller'>
        <path class='scroller__arrow scroller__arrow--first' d="M28.74,52.05 L14.43,63.364 L14.38,63.314 L14.33,63.364 L0.02,52.05 L1.43,50.636 L14.38,60.586 L27.33,50.636 L28.74,52.05 Z"></path>
        <path class='scroller__arrow scroller__arrow--second' d="M28.74,62.05 L14.43,73.364 L14.38,73.314 L14.33,73.364 L0.02,62.05 L1.43,60.636 L14.38,70.586 L27.33,60.636 L28.74,62.05 Z"></path>
        <path class='scroller__frame' d="M13.5,0.108 L13.5,5.68434189e-14 L15.27,5.68434189e-14 L15.27,0.105 C22.666908,0.667831024 28.3650274,6.86191412 28.31,14.28 L28.31,32.74 C28.4311806,37.7962955 25.8029598,42.521239 21.4431602,45.0850169 C17.0833607,47.6487947 11.6766393,47.6487947 7.31683976,45.0850169 C2.95704021,42.521239 0.328819411,37.7962955 0.45,32.74 L0.45,14.28 C0.391503141,6.85739973 6.09776227,0.660533493 13.5,0.108 L13.5,0.108 Z M2.23,32.74 C2.10307098,37.1638908 4.39068628,41.3071539 8.20213212,43.5565542 C12.013578,45.8059544 16.746422,45.8059544 20.5578679,43.5565542 C24.3693137,41.3071539 26.656929,37.1638908 26.53,32.74 L26.53,14.282 C26.6569546,9.85630578 24.3683919,5.71136527 20.5553886,3.46105594 C16.7423852,1.2107466 12.0076148,1.2107466 8.19461142,3.46105594 C4.38160805,5.71136527 2.09304536,9.85630578 2.22,14.282 L2.23,32.74 Z"></path>
        <path class='scroller__wheel' d="M14.38,6.055 C14.616032,6.05446824 14.8425643,6.14792769 15.0095583,6.31473407 C15.1765523,6.48154045 15.2702664,6.70796759 15.27,6.944 L15.27,12.944 C15.2700002,13.2619665 15.1003671,13.5557797 14.8250001,13.714763 C14.5496331,13.8737462 14.2103669,13.8737462 13.9349999,13.714763 C13.6596329,13.5557797 13.4899998,13.2619665 13.49,12.944 L13.49,6.944 C13.4959459,6.45511423 13.8911078,6.06039631 14.38,6.055 L14.38,6.055 Z"></path>
</svg>
